PathFileType	4	(X/Y/Z)	E:\Qualisys_Data\Carbon_Farble_Plate\Data\Amateur_Runner\S2\T1\S2T1V23_c3d.trc
DataRate	CameraRate	NumFrames	NumMarkers	Units	OrigDataRate	OrigDataStartFrame	OrigNumFrames
200.000000	200.000000	4	39	mm	200.000000	117	314
Frame#	Time	LSHO			RSHO			LICST			RICST			LASIS			LHEEL			RASIS			LTROC			RTROC			SACR			LTH1			LSK4			LTH2			LTH3			RHM5			LSK2			LTH4			RTH1			LTOE			RTH2			RTH3			RTH4			LLEP			RLEP			LSK1			LSK3			RSK1			LHM5			RSK2			LFT1			RSK3			RSK4			LLME			RLME			RTOE			RHEEL			RFT1			RFT2			LFT2			
		X1	Y1	Z1	X2	Y2	Z2	X3	Y3	Z3	X4	Y4	Z4	X5	Y5	Z5	X6	Y6	Z6	X7	Y7	Z7	X8	Y8	Z8	X9	Y9	Z9	X10	Y10	Z10	X11	Y11	Z11	X12	Y12	Z12	X13	Y13	Z13	X14	Y14	Z14	X15	Y15	Z15	X16	Y16	Z16	X17	Y17	Z17	X18	Y18	Z18	X19	Y19	Z19	X20	Y20	Z20	X21	Y21	Z21	X22	Y22	Z22	X23	Y23	Z23	X24	Y24	Z24	X25	Y25	Z25	X26	Y26	Z26	X27	Y27	Z27	X28	Y28	Z28	X29	Y29	Z29	X30	Y30	Z30	X31	Y31	Z31	X32	Y32	Z32	X33	Y33	Z33	X34	Y34	Z34	X35	Y35	Z35	X36	Y36	Z36	X37	Y37	Z37	X38	Y38	Z38	X39	Y39	Z39	

118	0.585	-837.1104736328125	1403.241577148438	-490.3237915039062	-839.9652709960938	1409.70751953125	-174.3491973876953	-935.3267822265624	958.7101440429688	-458.9630432128906	-893.95458984375	942.7368774414062	-156.7064514160156	-879.5286865234375	908.8832397460938	-451.3854370117188	-1280.933959960938	136.0297393798828	-327.7073669433594	-838.40673828125	896.7117309570312	-191.2181549072266	-1016.458251953125	845.0858764648438	-442.6812438964844	-971.4401245117188	838.3756713867188	-145.4425659179688	-1000.457824707031	997.9207153320312	-297.2343139648438	-919.9924926757812	592.5232543945312	-471.1688537597656	-1146.003540039062	287.24267578125	-424.9550476074219	-999.9861450195312	597.8978271484375	-462.526611328125	-926.0093383789062	490.6976928710938	-446.7886962890625	-1064.604614257812	267.5855102539062	-162.2392883300781	-1086.3427734375	365.5744934082031	-446.0773010253906	-1008.525634765625	500.536865234375	-437.3083801269531	-715.4277954101562	660.6049194335938	-156.3100433349609	-1056.0341796875	65.1087417602539	-358.5547485351562	-783.9824829101562	620.5568237304688	-146.1744689941406	-668.20361328125	572.0523071289062	-176.0883178710938	-740.6270141601562	534.52783203125	-167.8334197998047	-976.7278442382812	449.7627258300781	-442.2478942871094	-703.7221069335938	522.518310546875	-165.7131500244141	-1023.570068359375	318.7783203125	-437.8190612792969	-1083.042114257812	239.8140869140625	-419.7957763671875	-776.0523681640625	446.397705078125	-174.8802032470703	-1114.154418945312	57.66511535644531	-420.9005737304688	-799.7891235351562	524.0969848632812	-167.2303161621094	-1274.115234375	107.2144012451172	-301.3948059082031	-874.3052978515625	417.3803405761719	-181.2914123535156	-894.0703735351562	494.8923034667969	-177.6562194824219	-1221.255737304688	129.3371887207031	-388.2149047851562	-1061.525390625	402.8193664550781	-200.8519592285156	-1028.75927734375	216.7016906738281	-220.4335327148438	-1096.651489257812	448.9515075683594	-260.6003112792969	-1116.845581054688	424.61279296875	-291.4059753417969	-1122.067749023438	442.3336486816406	-236.2123718261719	-1289.201904296875	108.5800247192383	-353.8533935546875
119	0.59	-814.8612670898438	1408.494140625	-488.9912719726562	-822.3692016601562	1414.263549804688	-173.8435668945312	-912.1871337890624	962.196044921875	-459.8966369628906	-873.1848754882812	947.5203247070312	-157.2053985595703	-857.4284057617188	911.970947265625	-451.6297607421875	-1276.32763671875	142.6219635009766	-329.3504028320312	-818.087890625	901.771484375	-191.4555511474609	-995.81982421875	849.506591796875	-442.89404296875	-949.3590087890624	844.310302734375	-144.3482360839844	-979.3192749023438	1001.727355957031	-299.2142639160156	-906.8282470703124	595.93994140625	-469.8871765136719	-1140.813354492188	294.2289428710938	-425.2373962402344	-986.826416015625	604.3805541992188	-462.0293579101562	-916.080810546875	494.4267272949219	-446.5430908203125	-1025.489990234375	257.5527038574219	-162.7244567871094	-1080.954345703125	372.0326538085938	-446.2427368164062	-998.407958984375	507.186767578125	-437.6965026855469	-692.6889038085938	669.1077270507812	-157.1027221679688	-1055.393432617188	65.09721374511719	-358.50244140625	-760.2203369140625	628.1080932617188	-146.6899261474609	-643.677001953125	581.7747802734375	-177.3791046142578	-715.7476806640625	542.235107421875	-168.5416412353516	-969.1956176757812	455.2957153320312	-442.2301940917969	-678.6469116210938	530.858642578125	-167.1295623779297	-1018.606079101562	324.6366577148438	-438.6697387695312	-1078.02099609375	246.2983856201172	-421.3376159667969	-747.4213256835938	451.0289306640625	-175.3951416015625	-1113.105102539062	58.65470504760742	-420.5915832519531	-774.8934326171875	526.6519775390625	-168.0625610351562	-1270.438720703125	115.2939376831055	-301.58203125	-844.1983032226562	417.0241394042969	-182.2752838134766	-867.4484252929688	493.5010375976562	-178.1458740234375	-1216.345703125	135.8177947998047	-389.2593688964844	-1030.76416015625	393.5316467285156	-200.5433349609375	-986.636474609375	209.5203399658203	-221.0770874023438	-1068.640991210938	437.5411071777344	-260.6647644042969	-1088.31982421875	412.4482727050781	-291.4093933105469	-1092.545166015625	429.0713195800781	-235.6270446777344	-1285.584106445312	115.1729049682617	-355.2824401855469
120	0.595	-792.91845703125	1413.624755859375	-487.1243896484375	-804.6854858398438	1419.144897460938	-173.4586029052734	-889.5653076171875	965.214111328125	-459.8888549804688	-852.7804565429688	952.5956420898438	-157.5405883789062	-835.6052856445312	914.6921997070312	-451.1282958984375	-1271.083618164062	150.0446014404297	-331.0343322753906	-797.628173828125	906.6080932617188	-191.7115173339844	-975.4987182617188	853.7138061523438	-442.4144592285156	-927.9740600585938	849.9641723632812	-142.8767700195312	-958.0988159179688	1005.339660644531	-300.6881408691406	-892.9363403320312	599.6970825195312	-468.9510498046875	-1135.308227539062	301.8489990234375	-426.1325378417969	-973.44384765625	611.30224609375	-461.2030334472656	-906.1680908203124	498.6109313964844	-445.6293640136719	-985.6303100585938	248.5943145751953	-163.4651794433594	-1075.141723632812	379.4262084960938	-446.6878356933594	-988.4312133789062	514.3055419921875	-437.7706909179688	-669.9349365234375	677.2496948242188	-157.7565155029297	-1054.611206054688	65.12602996826172	-358.6910400390625	-736.7679443359375	635.1119384765625	-147.5803375244141	-619.7361450195312	590.864013671875	-178.5210723876953	-690.8366088867188	550.3334350585938	-169.7876586914062	-961.1363525390624	461.3110046386719	-442.6697082519531	-653.4489135742188	538.783203125	-168.4819488525391	-1012.684143066406	331.0543823242188	-440.1443176269531	-1072.791137695312	252.9794921875	-423.27685546875	-719.6820068359375	454.6279296875	-176.7569274902344	-1111.821655273438	59.51225280761719	-420.9510498046875	-749.9930419921875	529.5401000976562	-169.2354278564453	-1265.940063476562	122.553840637207	-302.5359191894531	-814.1162109375	416.4202880859375	-182.5746765136719	-841.30224609375	491.6206359863281	-178.0158996582031	-1211.540771484375	142.0490570068359	-390.7008361816406	-999.676025390625	383.0283203125	-200.9955291748047	-943.9411010742188	203.1928558349609	-222.14990234375	-1040.417602539062	425.6165161132812	-260.0688171386719	-1058.802490234375	398.5653686523438	-291.502685546875	-1063.832153320312	415.8663024902344	-235.0553436279297	-1280.263916015625	122.8513031005859	-355.4947509765625
121	0.6	-771.29736328125	1418.881103515625	-485.574951171875	-787.1735229492188	1423.735717773438	-172.8966827392578	-866.8699951171875	968.9058837890624	-460.1325378417969	-832.3108520507812	957.7476196289062	-157.5624694824219	-813.898681640625	917.6549072265624	-450.9163818359375	-1265.353515625	157.8269805908203	-332.4872741699219	-777.101806640625	911.7979125976562	-191.7729949951172	-954.7606811523438	858.4517822265625	-442.6291198730469	-906.3087158203124	855.7946166992188	-141.6894226074219	-937.2802734375	1009.278564453125	-301.897705078125	-878.846435546875	603.7110595703125	-467.8491516113281	-1128.794067382812	310.0772705078125	-426.6495361328125	-959.1001586914062	618.3811645507812	-462.0023193359375	-895.6237182617188	503.0153503417969	-445.2647399902344	-945.1331176757812	239.5726013183594	-163.8710021972656	-1067.685791015625	386.5355529785156	-447.06982421875	-977.7075805664062	521.5667114257812	-437.7364807128906	-647.4625854492188	685.1163940429688	-158.2029876708984	-1053.571533203125	65.08543395996094	-358.7560729980469	-713.4718017578125	641.7198486328125	-148.1627655029297	-596.0874633789062	599.589111328125	-179.6732788085938	-666.3679809570312	558.0180053710938	-170.0569763183594	-952.28857421875	467.5325317382812	-443.0921630859375	-628.7216186523438	546.3866577148438	-169.5381317138672	-1006.208740234375	338.2710266113281	-441.5430603027344	-1067.884155273438	260.63623046875	-425.0587768554688	-691.3986206054688	459.1703491210938	-176.3938293457031	-1110.250122070312	60.9748649597168	-420.998779296875	-725.59814453125	531.8465576171875	-169.3836669921875	-1260.757690429688	130.6779327392578	-304.1920776367188	-784.2078857421875	416.1557006835938	-182.8167419433594	-815.4197387695312	489.5904541015625	-177.7529449462891	-1206.574340820312	149.3764953613281	-393.0213317871094	-967.8363037109376	372.978515625	-201.0916748046875	-901.3092041015624	197.107177734375	-223.1674194335938	-1012.232482910156	413.4016723632812	-257.8935241699219	-1028.27392578125	384.824462890625	-289.8115844726562	-1034.88671875	401.7158813476562	-233.8495178222656	-1274.282104492188	130.7931365966797	-356.2156677246094
